HIERARCHY
ROOT Hips
{
    OFFSET 0.000000 0.000000 0.000000
    CHANNELS 6 Xposition Yposition Zposition Zrotation Xrotation Yrotation
    JOINT Spine
    {
        OFFSET -0.000000 7.236184 0.000000
        CHANNELS 3 Zrotation Xrotation Yrotation
        JOINT Spine1
        {
            OFFSET -0.000000 20.420147 0.000000
            CHANNELS 3 Zrotation Xrotation Yrotation
            JOINT Neck
            {
                OFFSET -0.000000 20.336288 1.848754
                CHANNELS 3 Zrotation Xrotation Yrotation
                JOINT Head
                {
                    OFFSET -0.000000 12.354461 -1.764923
                    CHANNELS 3 Zrotation Xrotation Yrotation
                    End Site
                    {
                        OFFSET -0.000000 22.061537 0.000000
                    }
                }
            }
            JOINT LeftShoulder
            {
                OFFSET 3.573296 18.396038 -0.314103
                CHANNELS 3 Zrotation Xrotation Yrotation
                JOINT LeftArm
                {
                    OFFSET 10.880760 0.000000 0.000000
                    CHANNELS 3 Zrotation Xrotation Yrotation
                    JOINT LeftForeArm
                    {
                        OFFSET 27.185530 0.000000 0.000000
                        CHANNELS 3 Zrotation Xrotation Yrotation
                        JOINT LeftHand
                        {
                            OFFSET 27.825975 0.000000 0.000000
                            CHANNELS 3 Zrotation Xrotation Yrotation
                            End Site
                            {
                                OFFSET 13.236923 0.000000 0.000000
                            }
                        }
                    }
                }
            }
            JOINT RightShoulder
            {
                OFFSET -3.474926 18.396038 -0.314103
                CHANNELS 3 Zrotation Xrotation Yrotation
                JOINT RightArm
                {
                    OFFSET -10.880760 0.000000 0.000000
                    CHANNELS 3 Zrotation Xrotation Yrotation
                    JOINT RightForeArm
                    {
                        OFFSET -27.185530 0.000000 0.000000
                        CHANNELS 3 Zrotation Xrotation Yrotation
                        JOINT RightHand
                        {
                            OFFSET -27.825975 0.000000 0.000000
                            CHANNELS 3 Zrotation Xrotation Yrotation
                            End Site
                            {
                                OFFSET -13.236923 0.000000 0.000000
                            }
                        }
                    }
                }
            }
        }
    }
    JOINT LeftUpLeg
    {
        OFFSET 8.824615 0.000000 0.000000
        CHANNELS 3 Zrotation Xrotation Yrotation
        JOINT LeftLeg
        {
            OFFSET -0.000000 -35.111282 0.000000
            CHANNELS 3 Zrotation Xrotation Yrotation
            JOINT LeftFoot
            {
                OFFSET -0.000000 -42.324711 0.000000
                CHANNELS 3 Zrotation Xrotation Yrotation
                JOINT LeftToeBase
                {
                    OFFSET -0.000000 -5.735999 13.236923
                    CHANNELS 3 Zrotation Xrotation Yrotation
                    End Site
                    {
                        OFFSET -0.000000 0.000000 3.529846
                    }
                }
            }
        }
    }
    JOINT RightUpLeg
    {
        OFFSET -8.824615 0.000000 0.000000
        CHANNELS 3 Zrotation Xrotation Yrotation
        JOINT RightLeg
        {
            OFFSET -0.000000 -35.111282 0.000000
            CHANNELS 3 Zrotation Xrotation Yrotation
            JOINT RightFoot
            {
                OFFSET -0.000000 -42.324711 0.000000
                CHANNELS 3 Zrotation Xrotation Yrotation
                JOINT RightToeBase
                {
                    OFFSET -0.000000 -5.735999 13.236923
                    CHANNELS 3 Zrotation Xrotation Yrotation
                    End Site
                    {
                        OFFSET -0.000000 0.000000 3.529846
                    }
                }
            }
        }
    }
}
MOTION
Frames:    10
Frame Time:    0.008333
-3.859896    82.296402    107.999542    1.728977    -5.439960    -158.961823    -3.958341    -12.855998    -1.469531    -1.881347    9.767144    -0.862665    1.768854    11.127025    -9.609182    21.306152    5.028722    -7.986788    6.214388    9.675288    -15.334290    -34.088287    25.747353    -69.880287    4.974857    -32.189777    -119.248856    20.276718    -23.387424    8.130874    0.243107    8.869723    5.139899    46.135937    3.085136    51.372391    -6.302833    -35.666119    126.443283    -14.439062    -24.229057    -5.398391    9.399737    -17.468494    3.897616    -1.519334    24.475559    16.150459    -9.999556    -7.617889    -13.347485    0.962038    0.552400    -1.065325    -9.864825    -2.995166    -3.709946    10.331718    18.466003    -12.054719    0.000000    0.000000    0.000000    0.000000    0.000000    0.000000    
-3.880971    82.292549    108.001373    1.706064    -5.465547    -159.186279    -3.935189    -12.765846    -1.487649    -1.923724    9.595068    -0.885883    1.864588    11.139295    -9.478569    21.069366    5.132278    -7.897157    6.403420    9.600868    -15.324139    -34.361408    25.580225    -69.688309    5.015748    -32.204159    -119.198524    20.273771    -23.342367    8.156416    0.051500    8.732073    5.172911    46.111504    3.021675    51.387123    -6.294795    -35.645706    126.357307    -14.453287    -24.237965    -5.430651    9.409877    -17.433138    3.992909    -1.553363    24.497181    16.278683    -10.000653    -7.651397    -13.324868    0.987081    0.563495    -1.093036    -9.915603    -3.109652    -3.624778    10.313832    18.557985    -11.968799    0.000000    0.000000    0.000000    0.000000    0.000000    0.000000    
-3.902298    82.288765    108.003548    1.683419    -5.491779    -159.411346    -3.911816    -12.676012    -1.506077    -1.965095    9.421258    -0.909477    1.959191    11.155663    -9.346094    20.831852    5.235404    -7.805018    6.589833    9.526934    -15.314911    -34.627575    25.410345    -69.494873    5.057423    -32.223049    -119.147835    20.274223    -23.300529    8.184452    -0.140166    8.593404    5.206930    46.081718    2.958038    51.404228    -6.287913    -35.629913    126.266525    -14.465953    -24.251297    -5.462120    9.420033    -17.398846    4.088786    -1.587698    24.519129    16.407114    -10.001633    -7.685228    -13.303810    1.008931    0.572513    -1.117213    -9.966149    -3.226282    -3.540847    10.295471    18.651489    -11.881365    0.000000    0.000000    0.000000    0.000000    0.000000    0.000000    
-3.923943    82.285110    108.006325    1.661579    -5.519117    -159.636139    -3.887325    -12.587377    -1.524424    -2.005683    9.245769    -0.933388    2.051244    11.177996    -9.211170    20.594845    5.337921    -7.709451    6.770431    9.453895    -15.306793    -34.881794    25.238356    -69.301056    5.100574    -32.248878    -119.096069    20.279522    -23.263432    8.215622    -0.330138    8.453615    5.243182    46.042908    2.894927    51.423859    -6.282585    -35.621738    126.170242    -14.476469    -24.271742    -5.492729    9.430305    -17.366619    4.184747    -1.622362    24.541403    16.535376    -10.002256    -7.719422    -13.285543    1.025488    0.578153    -1.135535    -10.016102    -3.346067    -3.459865    10.276166    18.747421    -11.792109    0.000000    0.000000    0.000000    0.000000    0.000000    0.000000    
-3.946379    82.281578    108.010086    1.640573    -5.548700    -159.864304    -3.860629    -12.499314    -1.542591    -2.046046    9.066046    -0.957438    2.140596    11.207311    -9.071036    20.355402    5.441872    -7.608207    6.945602    9.379610    -15.300099    -35.125816    25.062687    -69.103516    5.146800    -32.284058    -119.042175    20.289190    -23.231190    8.250418    -0.520837    8.309849    5.281858    45.992294    2.832226    51.447216    -6.279010    -35.622810    126.066292    -14.484249    -24.301331    -5.521894    9.440765    -17.337038    4.282071    -1.657916    24.564556    16.666117    -10.002475    -7.754618    -13.270616    1.035475    0.579430    -1.146590    -10.066330    -3.472470    -3.380894    10.255694    18.848358    -11.699033    0.000000    0.000000    0.000000    0.000000    0.000000    0.000000    
-3.969441    82.278236    108.015015    1.620853    -5.580580    -160.093170    -3.831674    -12.414093    -1.559583    -2.085410    8.886094    -0.980641    2.224990    11.243055    -8.927236    20.117109    5.545709    -7.502147    7.110889    9.304098    -15.295782    -35.354794    24.885950    -68.904526    5.196543    -32.329285    -118.986580    20.301580    -23.204130    8.287889    -0.708968    8.162946    5.321841    45.929508    2.771382    51.474247    -6.277338    -35.633930    125.955841    -14.489306    -24.340754    -5.548979    9.451265    -17.311155    4.379093    -1.694158    24.588511    16.798256    -10.002217    -7.790529    -13.259223    1.038673    0.576709    -1.150137    -10.116096    -3.605267    -3.305501    10.233897    18.954399    -11.602925    0.000000    0.000000    0.000000    0.000000    0.000000    0.000000    
-3.993350    82.275055    108.021355    1.602431    -5.615463    -160.324600    -3.800032    -12.331882    -1.574716    -2.123818    8.705935    -1.002439    2.304375    11.284963    -8.778921    19.878689    5.649688    -7.390564    7.266037    9.226849    -15.294386    -35.569313    24.707346    -68.703445    5.251189    -32.385292    -118.928688    20.314169    -23.181223    8.327260    -0.894618    8.011859    5.362444    45.854439    2.712442    51.505146    -6.277012    -35.654732    125.838982    -14.491535    -24.390364    -5.573422    9.461878    -17.289545    4.476036    -1.731627    24.613787    16.933624    -10.001431    -7.827517    -13.251143    1.035390    0.570012    -1.146515    -10.165687    -3.746832    -3.233178    10.210434    19.067644    -11.502913    0.000000    0.000000    0.000000    0.000000    0.000000    0.000000    
-4.018512    82.271912    108.029404    1.585167    -5.654212    -160.562622    -3.764831    -12.251694    -1.587748    -2.162102    8.523644    -1.022418    2.379645    11.332841    -8.623877    19.636692    5.755177    -7.271731    7.412036    9.146281    -15.295851    -35.772263    24.525030    -68.497406    5.312705    -32.452629    -118.867378    20.323368    -23.160809    8.367620    -1.079423    7.854952    5.403998    45.767277    2.654572    51.540154    -6.277504    -35.684589    125.714859    -14.491458    -24.450655    -5.594620    9.472915    -17.272675    4.573884    -1.771218    24.641527    17.075235    -10.000122    -7.866376    -13.245633    1.026660    0.559669    -1.136870    -10.215608    -3.900855    -3.162770    10.184603    19.191364    -11.397273    0.000000    0.000000    0.000000    0.000000    0.000000    0.000000    
-4.044468    82.268784    108.039238    1.569564    -5.696347    -160.803436    -3.726254    -12.174869    -1.597789    -2.199915    8.343086    -1.039805    2.449814    11.385583    -8.464975    19.395124    5.859179    -7.147712    7.546021    9.064149    -15.299822    -35.960911    24.342474    -68.290863    5.380432    -32.528744    -118.804100    20.324862    -23.141418    8.406843    -1.259004    7.695788    5.445375    45.672081    2.598788    51.578438    -6.277844    -35.720642    125.586861    -14.489630    -24.519796    -5.611431    9.484571    -17.261675    4.670089    -1.812977    24.672089    17.222136    -9.998159    -7.906559    -13.242124    1.014063    0.547347    -1.122945    -10.264669    -4.066046    -3.094669    10.157016    19.324894    -11.288101    0.000000    0.000000    0.000000    0.000000    0.000000    0.000000    
-4.071462    82.265533    108.051109    1.555663    -5.742499    -161.050369    -3.683535    -12.100389    -1.604582    -2.238011    8.162798    -1.054359    2.516151    11.443235    -8.300619    19.150768    5.961598    -7.017202    7.669535    8.979832    -15.305550    -36.138500    24.158401    -68.082054    5.455721    -32.613121    -118.738457    20.313801    -23.121138    8.443254    -1.434252    7.533888    5.487329    45.570419    2.544071    51.619831    -6.276848    -35.761055    125.455223    -14.486704    -24.597378    -5.623609    9.497571    -17.257225    4.765010    -1.858212    24.706932    17.377550    -9.995341    -7.948858    -13.239554    0.999291    0.534022    -1.106614    -10.312883    -4.245856    -3.027822    10.126916    19.471592    -11.174493    0.000000    0.000000    0.000000    0.000000    0.000000    0.000000    
